# xmcd
#
# Track frame offsets:
#	182
#	17672
#	34220
#	53262
#	69762
#	83382
#	99572
#	115585
#	132890
#	152485
#
# Disc length: 2240 seconds
# Revision: 9
# Processed by: cddbd v1.5.2PL0 Copyright (c) Steve Scherf et al.
# Submitted via: dBpowerAMP V12.0
#
DISCID=6308be0a
DTITLE=Various Artist - The Best Of Kenny Rogers
DYEAR=1991
DGENRE=Country
TTITLE0=Kenny Rogers - Lady
TTITLE1=Kenny Rogers and Kim Carnes - Don't Fall In Love With A Dreamer
TTITLE2=Kenny Rogers - She Believes In Me
TTITLE3=Kenny Rogers - You Decorated My Life
TTITLE4=Kenny Rogers and Dottie West - Every Time Two Fools Collide
TTITLE5=Kenny Rogers - Lucille
TTITLE6=Kenny Rogers - The Gambler
TTITLE7=Kenny Rogers and Sheena Easton - We've Got Tonight
TTITLE8=Kenny Rogers - Coward Of The County
TTITLE9=Kenny Rogers - I Don't Need You
EXTD=
EXTT0=
EXTT1=
EXTT2=
EXTT3=
EXTT4=
EXTT5=
EXTT6=
EXTT7=
EXTT8=
EXTT9=
PLAYORDER=
